<mxfile host="app.diagrams.net" agent="Mozilla/5.0 (Windows NT 10.0; Win64; x64) AppleWebKit/537.36 (KHTML, like Gecko) Chrome/127.0.0.0 Safari/537.36" version="24.7.7">
  <diagram name="Página-1" id="XO3kLXJVmuCcQXEANvK1">
    <mxGraphModel dx="1050" dy="522" grid="1" gridSize="10" guides="1" tooltips="1" connect="1" arrows="1" fold="1" page="1" pageScale="1" pageWidth="827" pageHeight="1169" math="0" shadow="0">
      <root>
        <mxCell id="0" />
        <mxCell id="1" parent="0" />
        <mxCell id="V5mmtUvJhXMbI7Sn1cEE-4" value="" style="edgeStyle=orthogonalEdgeStyle;rounded=0;orthogonalLoop=1;jettySize=auto;html=1;" edge="1" parent="1" source="V5mmtUvJhXMbI7Sn1cEE-1" target="V5mmtUvJhXMbI7Sn1cEE-3">
          <mxGeometry relative="1" as="geometry" />
        </mxCell>
        <mxCell id="V5mmtUvJhXMbI7Sn1cEE-1" value="Inicio" style="ellipse;whiteSpace=wrap;html=1;aspect=fixed;" vertex="1" parent="1">
          <mxGeometry x="360" y="60" width="80" height="80" as="geometry" />
        </mxCell>
        <mxCell id="V5mmtUvJhXMbI7Sn1cEE-7" value="" style="edgeStyle=orthogonalEdgeStyle;rounded=0;orthogonalLoop=1;jettySize=auto;html=1;" edge="1" parent="1" source="V5mmtUvJhXMbI7Sn1cEE-2" target="V5mmtUvJhXMbI7Sn1cEE-6">
          <mxGeometry relative="1" as="geometry" />
        </mxCell>
        <mxCell id="V5mmtUvJhXMbI7Sn1cEE-10" value="" style="edgeStyle=orthogonalEdgeStyle;rounded=0;orthogonalLoop=1;jettySize=auto;html=1;" edge="1" parent="1" source="V5mmtUvJhXMbI7Sn1cEE-2" target="V5mmtUvJhXMbI7Sn1cEE-9">
          <mxGeometry relative="1" as="geometry" />
        </mxCell>
        <mxCell id="V5mmtUvJhXMbI7Sn1cEE-2" value="Si edad &gt;= 18 entonces" style="rhombus;whiteSpace=wrap;html=1;" vertex="1" parent="1">
          <mxGeometry x="340" y="310" width="120" height="130" as="geometry" />
        </mxCell>
        <mxCell id="V5mmtUvJhXMbI7Sn1cEE-5" value="" style="edgeStyle=orthogonalEdgeStyle;rounded=0;orthogonalLoop=1;jettySize=auto;html=1;" edge="1" parent="1" source="V5mmtUvJhXMbI7Sn1cEE-3" target="V5mmtUvJhXMbI7Sn1cEE-2">
          <mxGeometry relative="1" as="geometry" />
        </mxCell>
        <mxCell id="V5mmtUvJhXMbI7Sn1cEE-3" value="&lt;div&gt;&amp;nbsp; &amp;nbsp; Mostrar mensaje: &quot;¿Cuántos años tiene el cliente? &quot;&lt;/div&gt;&lt;div&gt;&lt;br&gt;&lt;/div&gt;" style="shape=parallelogram;perimeter=parallelogramPerimeter;whiteSpace=wrap;html=1;fixedSize=1;" vertex="1" parent="1">
          <mxGeometry x="320" y="180" width="160" height="100" as="geometry" />
        </mxCell>
        <mxCell id="V5mmtUvJhXMbI7Sn1cEE-6" value="Mostrar mensaje: &quot;Puedes ingresar a la discoteca&quot;" style="shape=parallelogram;perimeter=parallelogramPerimeter;whiteSpace=wrap;html=1;fixedSize=1;" vertex="1" parent="1">
          <mxGeometry x="520" y="322.5" width="170" height="105" as="geometry" />
        </mxCell>
        <mxCell id="V5mmtUvJhXMbI7Sn1cEE-8" value="Si" style="text;html=1;align=center;verticalAlign=middle;whiteSpace=wrap;rounded=0;" vertex="1" parent="1">
          <mxGeometry x="460" y="340" width="60" height="30" as="geometry" />
        </mxCell>
        <mxCell id="V5mmtUvJhXMbI7Sn1cEE-13" value="" style="edgeStyle=orthogonalEdgeStyle;rounded=0;orthogonalLoop=1;jettySize=auto;html=1;" edge="1" parent="1" source="V5mmtUvJhXMbI7Sn1cEE-9" target="V5mmtUvJhXMbI7Sn1cEE-12">
          <mxGeometry relative="1" as="geometry" />
        </mxCell>
        <mxCell id="V5mmtUvJhXMbI7Sn1cEE-9" value="&lt;div&gt;&amp;nbsp; &amp;nbsp; &amp;nbsp; &amp;nbsp; Mostrar mensaje: &quot;Lo sentimos mucho, no pueden ingresar a la discoteca los menores de edad&quot;&lt;/div&gt;&lt;div&gt;&lt;br&gt;&lt;/div&gt;" style="shape=parallelogram;perimeter=parallelogramPerimeter;whiteSpace=wrap;html=1;fixedSize=1;" vertex="1" parent="1">
          <mxGeometry x="312.5" y="490" width="175" height="120" as="geometry" />
        </mxCell>
        <mxCell id="V5mmtUvJhXMbI7Sn1cEE-11" value="No" style="text;html=1;align=center;verticalAlign=middle;whiteSpace=wrap;rounded=0;" vertex="1" parent="1">
          <mxGeometry x="400" y="450" width="60" height="30" as="geometry" />
        </mxCell>
        <mxCell id="V5mmtUvJhXMbI7Sn1cEE-12" value="Fin" style="ellipse;whiteSpace=wrap;html=1;aspect=fixed;" vertex="1" parent="1">
          <mxGeometry x="360" y="660" width="80" height="80" as="geometry" />
        </mxCell>
      </root>
    </mxGraphModel>
  </diagram>
</mxfile>
